<mxfile host="app.diagrams.net" agent="Mozilla/5.0 (Windows NT 10.0; Win64; x64) AppleWebKit/537.36 (KHTML, like Gecko) Chrome/128.0.0.0 Safari/537.36" version="24.7.13">
  <diagram name="Page-1" id="D0JM2CN-HsSH8OnOr3U_">
    <mxGraphModel dx="882" dy="578" grid="1" gridSize="10" guides="1" tooltips="1" connect="1" arrows="1" fold="1" page="1" pageScale="1" pageWidth="850" pageHeight="1100" math="0" shadow="0">
      <root>
        <mxCell id="0" />
        <mxCell id="1" parent="0" />
        <mxCell id="dH1kiIGY2Zp__bITp5ts-48" style="edgeStyle=orthogonalEdgeStyle;rounded=0;orthogonalLoop=1;jettySize=auto;html=1;exitX=1;exitY=0.5;exitDx=0;exitDy=0;entryX=0;entryY=0.5;entryDx=0;entryDy=0;" parent="1" source="dH1kiIGY2Zp__bITp5ts-1" target="dH1kiIGY2Zp__bITp5ts-12" edge="1">
          <mxGeometry relative="1" as="geometry" />
        </mxCell>
        <mxCell id="dH1kiIGY2Zp__bITp5ts-1" value="New videos" style="rounded=1;whiteSpace=wrap;html=1;" parent="1" vertex="1">
          <mxGeometry x="40" y="160" width="80" height="40" as="geometry" />
        </mxCell>
        <mxCell id="dH1kiIGY2Zp__bITp5ts-9" value="" style="swimlane;startSize=0;" parent="1" vertex="1">
          <mxGeometry x="160" y="280" width="520" height="440" as="geometry" />
        </mxCell>
        <mxCell id="dH1kiIGY2Zp__bITp5ts-2" value="" style="swimlane;startSize=0;" parent="dH1kiIGY2Zp__bITp5ts-9" vertex="1">
          <mxGeometry x="40" y="40" width="320" height="200" as="geometry" />
        </mxCell>
        <mxCell id="dH1kiIGY2Zp__bITp5ts-60" style="edgeStyle=orthogonalEdgeStyle;rounded=0;orthogonalLoop=1;jettySize=auto;html=1;exitX=0.25;exitY=0;exitDx=0;exitDy=0;" parent="dH1kiIGY2Zp__bITp5ts-2" source="dH1kiIGY2Zp__bITp5ts-3" target="dH1kiIGY2Zp__bITp5ts-6" edge="1">
          <mxGeometry relative="1" as="geometry" />
        </mxCell>
        <mxCell id="dH1kiIGY2Zp__bITp5ts-62" style="edgeStyle=orthogonalEdgeStyle;rounded=0;orthogonalLoop=1;jettySize=auto;html=1;exitX=0.75;exitY=0;exitDx=0;exitDy=0;entryX=0.5;entryY=1;entryDx=0;entryDy=0;" parent="dH1kiIGY2Zp__bITp5ts-2" source="dH1kiIGY2Zp__bITp5ts-3" target="dH1kiIGY2Zp__bITp5ts-8" edge="1">
          <mxGeometry relative="1" as="geometry" />
        </mxCell>
        <mxCell id="dH1kiIGY2Zp__bITp5ts-63" style="edgeStyle=orthogonalEdgeStyle;rounded=0;orthogonalLoop=1;jettySize=auto;html=1;exitX=1;exitY=0.5;exitDx=0;exitDy=0;entryX=0;entryY=0.5;entryDx=0;entryDy=0;" parent="dH1kiIGY2Zp__bITp5ts-2" source="dH1kiIGY2Zp__bITp5ts-3" target="dH1kiIGY2Zp__bITp5ts-18" edge="1">
          <mxGeometry relative="1" as="geometry" />
        </mxCell>
        <mxCell id="dH1kiIGY2Zp__bITp5ts-3" value="Text embedding computation" style="rounded=1;whiteSpace=wrap;html=1;" parent="dH1kiIGY2Zp__bITp5ts-2" vertex="1">
          <mxGeometry x="80" y="120" width="80" height="40" as="geometry" />
        </mxCell>
        <mxCell id="dH1kiIGY2Zp__bITp5ts-59" style="edgeStyle=orthogonalEdgeStyle;rounded=0;orthogonalLoop=1;jettySize=auto;html=1;exitX=0.5;exitY=1;exitDx=0;exitDy=0;entryX=0.25;entryY=0;entryDx=0;entryDy=0;" parent="dH1kiIGY2Zp__bITp5ts-2" source="dH1kiIGY2Zp__bITp5ts-6" target="dH1kiIGY2Zp__bITp5ts-3" edge="1">
          <mxGeometry relative="1" as="geometry" />
        </mxCell>
        <mxCell id="dH1kiIGY2Zp__bITp5ts-6" value="Text preprocess" style="rounded=1;whiteSpace=wrap;html=1;" parent="dH1kiIGY2Zp__bITp5ts-2" vertex="1">
          <mxGeometry x="40" y="40" width="80" height="40" as="geometry" />
        </mxCell>
        <mxCell id="dH1kiIGY2Zp__bITp5ts-61" style="edgeStyle=orthogonalEdgeStyle;rounded=0;orthogonalLoop=1;jettySize=auto;html=1;exitX=0.5;exitY=1;exitDx=0;exitDy=0;entryX=0.75;entryY=0;entryDx=0;entryDy=0;" parent="dH1kiIGY2Zp__bITp5ts-2" source="dH1kiIGY2Zp__bITp5ts-8" target="dH1kiIGY2Zp__bITp5ts-3" edge="1">
          <mxGeometry relative="1" as="geometry" />
        </mxCell>
        <mxCell id="dH1kiIGY2Zp__bITp5ts-8" value="Text encoder" style="rounded=1;whiteSpace=wrap;html=1;" parent="dH1kiIGY2Zp__bITp5ts-2" vertex="1">
          <mxGeometry x="160" y="40" width="80" height="40" as="geometry" />
        </mxCell>
        <mxCell id="dH1kiIGY2Zp__bITp5ts-18" value="Nearest neighbor service" style="rounded=1;whiteSpace=wrap;html=1;" parent="dH1kiIGY2Zp__bITp5ts-2" vertex="1">
          <mxGeometry x="200" y="120" width="80" height="40" as="geometry" />
        </mxCell>
        <mxCell id="dH1kiIGY2Zp__bITp5ts-57" value="Visual search" style="text;html=1;strokeColor=none;fillColor=none;align=center;verticalAlign=middle;whiteSpace=wrap;rounded=0;" parent="dH1kiIGY2Zp__bITp5ts-2" vertex="1">
          <mxGeometry x="80" width="240" height="30" as="geometry" />
        </mxCell>
        <mxCell id="dH1kiIGY2Zp__bITp5ts-17" value="" style="swimlane;startSize=0;" parent="dH1kiIGY2Zp__bITp5ts-9" vertex="1">
          <mxGeometry x="40" y="280" width="320" height="120" as="geometry" />
        </mxCell>
        <mxCell id="dH1kiIGY2Zp__bITp5ts-4" value="Elasticsearch" style="rounded=1;whiteSpace=wrap;html=1;" parent="dH1kiIGY2Zp__bITp5ts-17" vertex="1">
          <mxGeometry x="200" y="40" width="80" height="40" as="geometry" />
        </mxCell>
        <mxCell id="dH1kiIGY2Zp__bITp5ts-58" value="Text search" style="text;html=1;strokeColor=none;fillColor=none;align=center;verticalAlign=middle;whiteSpace=wrap;rounded=0;" parent="dH1kiIGY2Zp__bITp5ts-17" vertex="1">
          <mxGeometry x="80" width="240" height="30" as="geometry" />
        </mxCell>
        <mxCell id="dH1kiIGY2Zp__bITp5ts-68" style="edgeStyle=orthogonalEdgeStyle;rounded=0;orthogonalLoop=1;jettySize=auto;html=1;exitX=0.75;exitY=1;exitDx=0;exitDy=0;entryX=0.75;entryY=0;entryDx=0;entryDy=0;" parent="dH1kiIGY2Zp__bITp5ts-9" source="dH1kiIGY2Zp__bITp5ts-22" target="dH1kiIGY2Zp__bITp5ts-23" edge="1">
          <mxGeometry relative="1" as="geometry" />
        </mxCell>
        <mxCell id="dH1kiIGY2Zp__bITp5ts-22" value="Fusing" style="rounded=1;whiteSpace=wrap;html=1;" parent="dH1kiIGY2Zp__bITp5ts-9" vertex="1">
          <mxGeometry x="400" y="240" width="80" height="40" as="geometry" />
        </mxCell>
        <mxCell id="dH1kiIGY2Zp__bITp5ts-23" value="Re-ranking service" style="rounded=1;whiteSpace=wrap;html=1;" parent="dH1kiIGY2Zp__bITp5ts-9" vertex="1">
          <mxGeometry x="400" y="360" width="80" height="40" as="geometry" />
        </mxCell>
        <mxCell id="dH1kiIGY2Zp__bITp5ts-40" value="Prediction pipeline" style="text;html=1;strokeColor=none;fillColor=none;align=center;verticalAlign=middle;whiteSpace=wrap;rounded=0;" parent="dH1kiIGY2Zp__bITp5ts-9" vertex="1">
          <mxGeometry x="280" width="240" height="30" as="geometry" />
        </mxCell>
        <mxCell id="dH1kiIGY2Zp__bITp5ts-66" style="edgeStyle=orthogonalEdgeStyle;rounded=0;orthogonalLoop=1;jettySize=auto;html=1;exitX=1;exitY=0.5;exitDx=0;exitDy=0;entryX=0.5;entryY=0;entryDx=0;entryDy=0;" parent="dH1kiIGY2Zp__bITp5ts-9" source="dH1kiIGY2Zp__bITp5ts-18" target="dH1kiIGY2Zp__bITp5ts-22" edge="1">
          <mxGeometry relative="1" as="geometry" />
        </mxCell>
        <mxCell id="dH1kiIGY2Zp__bITp5ts-67" style="edgeStyle=orthogonalEdgeStyle;rounded=0;orthogonalLoop=1;jettySize=auto;html=1;exitX=1;exitY=0.5;exitDx=0;exitDy=0;entryX=0.5;entryY=1;entryDx=0;entryDy=0;" parent="dH1kiIGY2Zp__bITp5ts-9" source="dH1kiIGY2Zp__bITp5ts-4" target="dH1kiIGY2Zp__bITp5ts-22" edge="1">
          <mxGeometry relative="1" as="geometry" />
        </mxCell>
        <mxCell id="dH1kiIGY2Zp__bITp5ts-11" value="" style="swimlane;startSize=0;" parent="1" vertex="1">
          <mxGeometry x="160" y="40" width="400" height="200" as="geometry" />
        </mxCell>
        <mxCell id="dH1kiIGY2Zp__bITp5ts-49" style="edgeStyle=orthogonalEdgeStyle;rounded=0;orthogonalLoop=1;jettySize=auto;html=1;exitX=1;exitY=0.5;exitDx=0;exitDy=0;entryX=0;entryY=0.5;entryDx=0;entryDy=0;" parent="dH1kiIGY2Zp__bITp5ts-11" source="dH1kiIGY2Zp__bITp5ts-12" target="dH1kiIGY2Zp__bITp5ts-13" edge="1">
          <mxGeometry relative="1" as="geometry" />
        </mxCell>
        <mxCell id="dH1kiIGY2Zp__bITp5ts-12" value="Videos" style="rounded=1;whiteSpace=wrap;html=1;" parent="dH1kiIGY2Zp__bITp5ts-11" vertex="1">
          <mxGeometry x="40" y="120" width="80" height="40" as="geometry" />
        </mxCell>
        <mxCell id="dH1kiIGY2Zp__bITp5ts-50" style="edgeStyle=orthogonalEdgeStyle;rounded=0;orthogonalLoop=1;jettySize=auto;html=1;exitX=1;exitY=0.5;exitDx=0;exitDy=0;entryX=0;entryY=0.5;entryDx=0;entryDy=0;" parent="dH1kiIGY2Zp__bITp5ts-11" source="dH1kiIGY2Zp__bITp5ts-13" target="dH1kiIGY2Zp__bITp5ts-14" edge="1">
          <mxGeometry relative="1" as="geometry" />
        </mxCell>
        <mxCell id="dH1kiIGY2Zp__bITp5ts-53" style="edgeStyle=orthogonalEdgeStyle;rounded=0;orthogonalLoop=1;jettySize=auto;html=1;exitX=0.25;exitY=0;exitDx=0;exitDy=0;entryX=1;entryY=0.5;entryDx=0;entryDy=0;" parent="dH1kiIGY2Zp__bITp5ts-11" source="dH1kiIGY2Zp__bITp5ts-13" target="dH1kiIGY2Zp__bITp5ts-15" edge="1">
          <mxGeometry relative="1" as="geometry" />
        </mxCell>
        <mxCell id="dH1kiIGY2Zp__bITp5ts-54" style="edgeStyle=orthogonalEdgeStyle;rounded=0;orthogonalLoop=1;jettySize=auto;html=1;exitX=0.75;exitY=0;exitDx=0;exitDy=0;entryX=0;entryY=0.5;entryDx=0;entryDy=0;" parent="dH1kiIGY2Zp__bITp5ts-11" source="dH1kiIGY2Zp__bITp5ts-13" target="dH1kiIGY2Zp__bITp5ts-16" edge="1">
          <mxGeometry relative="1" as="geometry" />
        </mxCell>
        <mxCell id="dH1kiIGY2Zp__bITp5ts-13" value="Video indexer" style="rounded=1;whiteSpace=wrap;html=1;" parent="dH1kiIGY2Zp__bITp5ts-11" vertex="1">
          <mxGeometry x="160" y="120" width="80" height="40" as="geometry" />
        </mxCell>
        <mxCell id="dH1kiIGY2Zp__bITp5ts-14" value="Video index table" style="rounded=1;whiteSpace=wrap;html=1;" parent="dH1kiIGY2Zp__bITp5ts-11" vertex="1">
          <mxGeometry x="280" y="120" width="80" height="40" as="geometry" />
        </mxCell>
        <mxCell id="dH1kiIGY2Zp__bITp5ts-51" style="edgeStyle=orthogonalEdgeStyle;rounded=0;orthogonalLoop=1;jettySize=auto;html=1;exitX=1;exitY=0.5;exitDx=0;exitDy=0;entryX=0.25;entryY=0;entryDx=0;entryDy=0;" parent="dH1kiIGY2Zp__bITp5ts-11" source="dH1kiIGY2Zp__bITp5ts-15" target="dH1kiIGY2Zp__bITp5ts-13" edge="1">
          <mxGeometry relative="1" as="geometry" />
        </mxCell>
        <mxCell id="dH1kiIGY2Zp__bITp5ts-15" value="Preprocess" style="rounded=1;whiteSpace=wrap;html=1;" parent="dH1kiIGY2Zp__bITp5ts-11" vertex="1">
          <mxGeometry x="80" y="40" width="80" height="40" as="geometry" />
        </mxCell>
        <mxCell id="dH1kiIGY2Zp__bITp5ts-52" style="edgeStyle=orthogonalEdgeStyle;rounded=0;orthogonalLoop=1;jettySize=auto;html=1;exitX=0;exitY=0.5;exitDx=0;exitDy=0;entryX=0.75;entryY=0;entryDx=0;entryDy=0;" parent="dH1kiIGY2Zp__bITp5ts-11" source="dH1kiIGY2Zp__bITp5ts-16" target="dH1kiIGY2Zp__bITp5ts-13" edge="1">
          <mxGeometry relative="1" as="geometry" />
        </mxCell>
        <mxCell id="dH1kiIGY2Zp__bITp5ts-16" value="Video encoder" style="rounded=1;whiteSpace=wrap;html=1;" parent="dH1kiIGY2Zp__bITp5ts-11" vertex="1">
          <mxGeometry x="240" y="40" width="80" height="40" as="geometry" />
        </mxCell>
        <mxCell id="dH1kiIGY2Zp__bITp5ts-47" value="Video indexing pipeline" style="text;html=1;strokeColor=none;fillColor=none;align=center;verticalAlign=middle;whiteSpace=wrap;rounded=0;" parent="dH1kiIGY2Zp__bITp5ts-11" vertex="1">
          <mxGeometry x="160" width="240" height="30" as="geometry" />
        </mxCell>
        <mxCell id="dH1kiIGY2Zp__bITp5ts-55" style="edgeStyle=orthogonalEdgeStyle;rounded=0;orthogonalLoop=1;jettySize=auto;html=1;exitX=0.5;exitY=0;exitDx=0;exitDy=0;entryX=0;entryY=0.5;entryDx=0;entryDy=0;" parent="1" source="dH1kiIGY2Zp__bITp5ts-24" target="dH1kiIGY2Zp__bITp5ts-3" edge="1">
          <mxGeometry relative="1" as="geometry" />
        </mxCell>
        <mxCell id="dH1kiIGY2Zp__bITp5ts-56" style="edgeStyle=orthogonalEdgeStyle;rounded=0;orthogonalLoop=1;jettySize=auto;html=1;exitX=0.5;exitY=1;exitDx=0;exitDy=0;entryX=0;entryY=0.5;entryDx=0;entryDy=0;" parent="1" source="dH1kiIGY2Zp__bITp5ts-24" target="dH1kiIGY2Zp__bITp5ts-4" edge="1">
          <mxGeometry relative="1" as="geometry" />
        </mxCell>
        <mxCell id="dH1kiIGY2Zp__bITp5ts-24" value="Text query" style="rounded=1;whiteSpace=wrap;html=1;" parent="1" vertex="1">
          <mxGeometry x="40" y="520" width="80" height="40" as="geometry" />
        </mxCell>
        <mxCell id="dH1kiIGY2Zp__bITp5ts-25" value="Search results" style="rounded=1;whiteSpace=wrap;html=1;" parent="1" vertex="1">
          <mxGeometry x="720" y="520" width="80" height="40" as="geometry" />
        </mxCell>
        <mxCell id="dH1kiIGY2Zp__bITp5ts-26" value="" style="swimlane;startSize=0;" parent="1" vertex="1">
          <mxGeometry x="160" y="760" width="520" height="280" as="geometry" />
        </mxCell>
        <mxCell id="dH1kiIGY2Zp__bITp5ts-71" style="edgeStyle=orthogonalEdgeStyle;rounded=0;orthogonalLoop=1;jettySize=auto;html=1;exitX=1;exitY=0.5;exitDx=0;exitDy=0;" parent="dH1kiIGY2Zp__bITp5ts-26" source="dH1kiIGY2Zp__bITp5ts-30" target="dH1kiIGY2Zp__bITp5ts-31" edge="1">
          <mxGeometry relative="1" as="geometry" />
        </mxCell>
        <mxCell id="dH1kiIGY2Zp__bITp5ts-73" style="edgeStyle=orthogonalEdgeStyle;rounded=0;orthogonalLoop=1;jettySize=auto;html=1;exitX=0.5;exitY=0;exitDx=0;exitDy=0;entryX=0;entryY=0.5;entryDx=0;entryDy=0;" parent="dH1kiIGY2Zp__bITp5ts-26" source="dH1kiIGY2Zp__bITp5ts-30" target="dH1kiIGY2Zp__bITp5ts-34" edge="1">
          <mxGeometry relative="1" as="geometry" />
        </mxCell>
        <mxCell id="dH1kiIGY2Zp__bITp5ts-74" style="edgeStyle=orthogonalEdgeStyle;rounded=0;orthogonalLoop=1;jettySize=auto;html=1;exitX=0.5;exitY=1;exitDx=0;exitDy=0;entryX=0;entryY=0.5;entryDx=0;entryDy=0;" parent="dH1kiIGY2Zp__bITp5ts-26" source="dH1kiIGY2Zp__bITp5ts-30" target="dH1kiIGY2Zp__bITp5ts-36" edge="1">
          <mxGeometry relative="1" as="geometry" />
        </mxCell>
        <mxCell id="dH1kiIGY2Zp__bITp5ts-30" value="Videos" style="rounded=1;whiteSpace=wrap;html=1;" parent="dH1kiIGY2Zp__bITp5ts-26" vertex="1">
          <mxGeometry x="40" y="120" width="80" height="40" as="geometry" />
        </mxCell>
        <mxCell id="dH1kiIGY2Zp__bITp5ts-72" style="edgeStyle=orthogonalEdgeStyle;rounded=0;orthogonalLoop=1;jettySize=auto;html=1;exitX=1;exitY=0.5;exitDx=0;exitDy=0;entryX=0;entryY=0.5;entryDx=0;entryDy=0;" parent="dH1kiIGY2Zp__bITp5ts-26" source="dH1kiIGY2Zp__bITp5ts-31" target="dH1kiIGY2Zp__bITp5ts-33" edge="1">
          <mxGeometry relative="1" as="geometry" />
        </mxCell>
        <mxCell id="dH1kiIGY2Zp__bITp5ts-31" value="Auto-tagger" style="rounded=1;whiteSpace=wrap;html=1;" parent="dH1kiIGY2Zp__bITp5ts-26" vertex="1">
          <mxGeometry x="160" y="120" width="80" height="40" as="geometry" />
        </mxCell>
        <mxCell id="dH1kiIGY2Zp__bITp5ts-78" style="edgeStyle=orthogonalEdgeStyle;rounded=0;orthogonalLoop=1;jettySize=auto;html=1;exitX=0.5;exitY=0;exitDx=0;exitDy=0;entryX=0.5;entryY=1;entryDx=0;entryDy=0;" parent="dH1kiIGY2Zp__bITp5ts-26" source="dH1kiIGY2Zp__bITp5ts-32" target="dH1kiIGY2Zp__bITp5ts-37" edge="1">
          <mxGeometry relative="1" as="geometry" />
        </mxCell>
        <mxCell id="dH1kiIGY2Zp__bITp5ts-32" value="Text indexer" style="rounded=1;whiteSpace=wrap;html=1;" parent="dH1kiIGY2Zp__bITp5ts-26" vertex="1">
          <mxGeometry x="400" y="120" width="80" height="40" as="geometry" />
        </mxCell>
        <mxCell id="dH1kiIGY2Zp__bITp5ts-75" style="edgeStyle=orthogonalEdgeStyle;rounded=0;orthogonalLoop=1;jettySize=auto;html=1;exitX=1;exitY=0.5;exitDx=0;exitDy=0;entryX=0;entryY=0.5;entryDx=0;entryDy=0;" parent="dH1kiIGY2Zp__bITp5ts-26" source="dH1kiIGY2Zp__bITp5ts-33" target="dH1kiIGY2Zp__bITp5ts-32" edge="1">
          <mxGeometry relative="1" as="geometry" />
        </mxCell>
        <mxCell id="dH1kiIGY2Zp__bITp5ts-33" value="Auto-generated-tags" style="rounded=1;whiteSpace=wrap;html=1;" parent="dH1kiIGY2Zp__bITp5ts-26" vertex="1">
          <mxGeometry x="280" y="120" width="80" height="40" as="geometry" />
        </mxCell>
        <mxCell id="dH1kiIGY2Zp__bITp5ts-76" style="edgeStyle=orthogonalEdgeStyle;rounded=0;orthogonalLoop=1;jettySize=auto;html=1;exitX=1;exitY=0.5;exitDx=0;exitDy=0;entryX=0;entryY=0.25;entryDx=0;entryDy=0;" parent="dH1kiIGY2Zp__bITp5ts-26" source="dH1kiIGY2Zp__bITp5ts-34" target="dH1kiIGY2Zp__bITp5ts-32" edge="1">
          <mxGeometry relative="1" as="geometry" />
        </mxCell>
        <mxCell id="dH1kiIGY2Zp__bITp5ts-34" value="Manual tags" style="rounded=1;whiteSpace=wrap;html=1;" parent="dH1kiIGY2Zp__bITp5ts-26" vertex="1">
          <mxGeometry x="280" y="40" width="80" height="40" as="geometry" />
        </mxCell>
        <mxCell id="dH1kiIGY2Zp__bITp5ts-77" style="edgeStyle=orthogonalEdgeStyle;rounded=0;orthogonalLoop=1;jettySize=auto;html=1;exitX=1;exitY=0.5;exitDx=0;exitDy=0;entryX=0;entryY=0.75;entryDx=0;entryDy=0;" parent="dH1kiIGY2Zp__bITp5ts-26" source="dH1kiIGY2Zp__bITp5ts-36" target="dH1kiIGY2Zp__bITp5ts-32" edge="1">
          <mxGeometry relative="1" as="geometry" />
        </mxCell>
        <mxCell id="dH1kiIGY2Zp__bITp5ts-36" value="Titles" style="rounded=1;whiteSpace=wrap;html=1;" parent="dH1kiIGY2Zp__bITp5ts-26" vertex="1">
          <mxGeometry x="280" y="200" width="80" height="40" as="geometry" />
        </mxCell>
        <mxCell id="dH1kiIGY2Zp__bITp5ts-37" value="Text index table&amp;nbsp;" style="rounded=1;whiteSpace=wrap;html=1;" parent="dH1kiIGY2Zp__bITp5ts-26" vertex="1">
          <mxGeometry x="400" y="40" width="80" height="40" as="geometry" />
        </mxCell>
        <mxCell id="dH1kiIGY2Zp__bITp5ts-70" style="edgeStyle=orthogonalEdgeStyle;rounded=0;orthogonalLoop=1;jettySize=auto;html=1;exitX=1;exitY=0.5;exitDx=0;exitDy=0;" parent="1" source="dH1kiIGY2Zp__bITp5ts-28" target="dH1kiIGY2Zp__bITp5ts-30" edge="1">
          <mxGeometry relative="1" as="geometry" />
        </mxCell>
        <mxCell id="dH1kiIGY2Zp__bITp5ts-28" value="New videos" style="rounded=1;whiteSpace=wrap;html=1;" parent="1" vertex="1">
          <mxGeometry x="40" y="880" width="80" height="40" as="geometry" />
        </mxCell>
        <mxCell id="dH1kiIGY2Zp__bITp5ts-39" value="Text indexing pipeline" style="text;html=1;strokeColor=none;fillColor=none;align=center;verticalAlign=middle;whiteSpace=wrap;rounded=0;" parent="1" vertex="1">
          <mxGeometry x="440" y="760" width="240" height="30" as="geometry" />
        </mxCell>
        <mxCell id="dH1kiIGY2Zp__bITp5ts-65" style="edgeStyle=orthogonalEdgeStyle;rounded=0;orthogonalLoop=1;jettySize=auto;html=1;exitX=0.25;exitY=1;exitDx=0;exitDy=0;entryX=0.75;entryY=0;entryDx=0;entryDy=0;" parent="1" source="dH1kiIGY2Zp__bITp5ts-14" target="dH1kiIGY2Zp__bITp5ts-18" edge="1">
          <mxGeometry relative="1" as="geometry" />
        </mxCell>
        <mxCell id="dH1kiIGY2Zp__bITp5ts-69" style="edgeStyle=orthogonalEdgeStyle;rounded=0;orthogonalLoop=1;jettySize=auto;html=1;exitX=0.5;exitY=1;exitDx=0;exitDy=0;" parent="1" source="dH1kiIGY2Zp__bITp5ts-23" target="dH1kiIGY2Zp__bITp5ts-25" edge="1">
          <mxGeometry relative="1" as="geometry" />
        </mxCell>
        <mxCell id="dH1kiIGY2Zp__bITp5ts-80" style="edgeStyle=orthogonalEdgeStyle;rounded=0;orthogonalLoop=1;jettySize=auto;html=1;exitX=0.5;exitY=0;exitDx=0;exitDy=0;entryX=0.5;entryY=1;entryDx=0;entryDy=0;" parent="1" source="dH1kiIGY2Zp__bITp5ts-37" target="dH1kiIGY2Zp__bITp5ts-4" edge="1">
          <mxGeometry relative="1" as="geometry">
            <Array as="points">
              <mxPoint x="600" y="740" />
              <mxPoint x="440" y="740" />
            </Array>
          </mxGeometry>
        </mxCell>
      </root>
    </mxGraphModel>
  </diagram>
</mxfile>
